<!DOCTYPE svg PUBLIC "-//W3C//DTD SVG 20010904//EN" "http://www.w3.org/TR/2001/REC-SVG-20010904/DTD/svg10.dtd">
<svg version="1.0" xmlns="http://www.w3.org/2000/svg" width="500px" height="500px" viewBox="0 0 5000 5000" preserveAspectRatio="xMidYMid meet">
<g id="layer101" fill="#00b3fe" stroke="none">
 <path d="M2180 4924 c-275 -35 -574 -130 -820 -261 -697 -370 -1164 -1028 -1286 -1813 -25 -160 -25 -538 -1 -700 76 -491 296 -949 626 -1305 352 -379 791 -627 1306 -739 228 -50 574 -61 826 -26 681 92 1287 465 1690 1040 198 282 350 668 405 1030 25 163 25 529 1 695 -137 910 -756 1658 -1627 1966 -113 40 -330 91 -469 110 -170 23 -486 24 -651 3z"/>
 </g>
<g id="layer102" fill="#feffff" stroke="none">
 <path d="M2255 4174 c-231 -38 -429 -146 -615 -333 -185 -186 -292 -378 -353 -636 -21 -88 -21 -112 -24 -1074 -4 -962 -3 -987 16 -1051 36 -117 130 -221 241 -267 33 -13 70 -18 140 -18 84 0 102 4 152 29 78 38 178 145 209 223 22 55 24 72 27 325 l3 267 637 3 637 3 72 34 c90 42 161 114 206 208 30 64 32 75 32 178 0 103 -2 114 -32 178 -43 89 -119 169 -202 210 l-66 32 -642 3 -643 3 0 235 c0 281 10 342 72 435 49 73 130 140 201 165 47 17 100 19 537 24 l485 5 59 29 c78 38 157 119 197 203 31 64 33 75 34 173 0 151 -23 209 -126 312 -121 121 -103 118 -693 117 -354 -1 -502 -5 -561 -15z"/>
 </g>

</svg>